HIERARCHY
ROOT newVegas:Hips
{
	OFFSET 0.000000 96.479958 0.000000
	CHANNELS 6 Xposition Yposition Zposition Xrotation Yrotation Zrotation
	JOINT newVegas:Pelvis
	{
		OFFSET 0.000000 0.000000 0.000000
		CHANNELS 3 Xrotation Yrotation Zrotation
		JOINT newVegas:LeftUpLeg
		{
			OFFSET 18.735201 -5.666702 -4.541200
			CHANNELS 3 Xrotation Yrotation Zrotation
			JOINT newVegas:LeftLeg
			{
				OFFSET -0.021200 -31.938179 0.493100
				CHANNELS 3 Xrotation Yrotation Zrotation
				JOINT newVegas:LeftFoot
				{
					OFFSET 0.021200 -31.938179 -4.336299
					CHANNELS 3 Xrotation Yrotation Zrotation
					JOINT newVegas:LeftToeBase
					{
						OFFSET 0.943001 -26.722000 15.023500
						CHANNELS 3 Xrotation Yrotation Zrotation
						End Site
						{
							OFFSET 0.000000 30.670183 0.000000
						}
					}
				}
				JOINT newVegas:Left_PantLeg
				{
					OFFSET 0.663870 -9.044666 -1.108900
					CHANNELS 3 Xrotation Yrotation Zrotation
					End Site
					{
						OFFSET 1.415995 20.635357 0.000000
					}
				}
			}
		}
		JOINT newVegas:RightUpLeg
		{
			OFFSET -18.735201 -5.666702 -4.541200
			CHANNELS 3 Xrotation Yrotation Zrotation
			JOINT newVegas:RightLeg
			{
				OFFSET 0.018946 -31.938133 0.493100
				CHANNELS 3 Xrotation Yrotation Zrotation
				JOINT newVegas:RightFoot
				{
					OFFSET -0.018946 -31.938126 -4.336299
					CHANNELS 3 Xrotation Yrotation Zrotation
					JOINT newVegas:RightToeBase
					{
						OFFSET -0.943001 -26.722004 15.023500
						CHANNELS 3 Xrotation Yrotation Zrotation
						End Site
						{
							OFFSET 0.000000 30.670187 0.000000
						}
					}
				}
				JOINT newVegas:Right_PantLeg
				{
					OFFSET -0.661674 -9.044716 -1.108900
					CHANNELS 3 Xrotation Yrotation Zrotation
					End Site
					{
						OFFSET -1.415958 20.635269 0.000000
					}
				}
			}
		}
	}
	JOINT newVegas:Spine
	{
		OFFSET 0.000000 10.199997 -0.299500
		CHANNELS 3 Xrotation Yrotation Zrotation
		JOINT newVegas:Spine1
		{
			OFFSET 0.000000 11.900002 -1.516600
			CHANNELS 3 Xrotation Yrotation Zrotation
			JOINT newVegas:Spine2
			{
				OFFSET 0.000000 13.600006 -2.842500
				CHANNELS 3 Xrotation Yrotation Zrotation
				JOINT newVegas:Neck
				{
					OFFSET 0.000000 9.624100 -2.890100
					CHANNELS 3 Xrotation Yrotation Zrotation
					JOINT newVegas:Head
					{
						OFFSET 0.000000 14.068802 -1.351900
						CHANNELS 3 Xrotation Yrotation Zrotation
						JOINT newVegas:Hair_Back
						{
							OFFSET 0.000000 3.231903 -17.524799
							CHANNELS 3 Xrotation Yrotation Zrotation
							End Site
							{
								OFFSET 0.000000 19.849884 0.000000
							}
						}
						JOINT newVegas:Hair_Front
						{
							OFFSET 0.000000 31.260406 4.573800
							CHANNELS 3 Xrotation Yrotation Zrotation
							JOINT newVegas:Hair_Front1
							{
								OFFSET 0.000000 2.284103 11.993300
								CHANNELS 3 Xrotation Yrotation Zrotation
								JOINT newVegas:Hair_Front2
								{
									OFFSET 0.000000 2.284103 11.993300
									CHANNELS 3 Xrotation Yrotation Zrotation
									End Site
									{
										OFFSET 0.000000 12.208862 0.000000
									}
								}
							}
						}
						JOINT newVegas:Jowel
						{
							OFFSET 0.000000 -7.458206 6.864100
							CHANNELS 3 Xrotation Yrotation Zrotation
							End Site
							{
								OFFSET 0.000000 19.849884 0.000000
							}
						}
					}
				}
				JOINT newVegas:LeftShoulder
				{
					OFFSET 15.263000 10.923401 -0.547700
					CHANNELS 3 Xrotation Yrotation Zrotation
					JOINT newVegas:LeftArm
					{
						OFFSET 25.438599 -2.830597 -13.032500
						CHANNELS 3 Xrotation Yrotation Zrotation
						JOINT newVegas:LeftForeArm
						{
							OFFSET 29.960503 0.000000 0.000000
							CHANNELS 3 Xrotation Yrotation Zrotation
							JOINT newVegas:LeftHand
							{
								OFFSET 27.849251 0.000000 0.000000
								CHANNELS 3 Xrotation Yrotation Zrotation
								JOINT newVegas:LeftHandThumb1
								{
									OFFSET 4.487587 -3.305161 6.305391
									CHANNELS 3 Xrotation Yrotation Zrotation
									JOINT newVegas:LeftHandThumb2
									{
										OFFSET 5.480453 -3.164139 3.164143
										CHANNELS 3 Xrotation Yrotation Zrotation
										JOINT newVegas:LeftHandThumb3
										{
											OFFSET 5.159721 -2.978973 2.978967
											CHANNELS 3 Xrotation Yrotation Zrotation
											End Site
											{
												OFFSET 2.494507 5.926697 1.738678
											}
										}
									}
								}
								JOINT newVegas:LeftHandIndex1
								{
									OFFSET 18.578728 -0.527832 5.208049
									CHANNELS 3 Xrotation Yrotation Zrotation
									JOINT newVegas:LeftHandIndex2
									{
										OFFSET 3.192009 0.000000 0.000000
										CHANNELS 3 Xrotation Yrotation Zrotation
										JOINT newVegas:LeftHandIndex3
										{
											OFFSET 3.835129 0.000000 0.000000
											CHANNELS 3 Xrotation Yrotation Zrotation
											End Site
											{
												OFFSET -0.034599 3.816971 0.371180
											}
										}
									}
								}
								JOINT newVegas:LeftHandMiddle1
								{
									OFFSET 18.476105 0.000000 0.000000
									CHANNELS 3 Xrotation Yrotation Zrotation
									JOINT newVegas:LeftHandMiddle2
									{
										OFFSET 3.324875 0.000000 0.000000
										CHANNELS 3 Xrotation Yrotation Zrotation
										JOINT newVegas:LeftHandMiddle3
										{
											OFFSET 4.596550 0.000000 0.000000
											CHANNELS 3 Xrotation Yrotation Zrotation
											End Site
											{
												OFFSET 0.057701 4.578827 0.399218
											}
										}
									}
								}
								JOINT newVegas:LeftHandRing1
								{
									OFFSET 17.732719 0.121887 -4.201567
									CHANNELS 3 Xrotation Yrotation Zrotation
									JOINT newVegas:LeftHandRing2
									{
										OFFSET 2.733170 0.000000 0.000000
										CHANNELS 3 Xrotation Yrotation Zrotation
										JOINT newVegas:LeftHandRing3
										{
											OFFSET 3.178268 0.000000 0.000000
											CHANNELS 3 Xrotation Yrotation Zrotation
											End Site
											{
												OFFSET 0.119102 3.170624 0.185394
											}
										}
									}
								}
								JOINT newVegas:LeftHandPinky1
								{
									OFFSET 15.989624 -0.606689 -7.535461
									CHANNELS 3 Xrotation Yrotation Zrotation
									JOINT newVegas:LeftHandPinky2
									{
										OFFSET 2.538986 0.000000 0.000000
										CHANNELS 3 Xrotation Yrotation Zrotation
										JOINT newVegas:LeftHandPinky3
										{
											OFFSET 2.593102 0.000000 0.000000
											CHANNELS 3 Xrotation Yrotation Zrotation
											End Site
											{
												OFFSET -0.150902 2.584198 0.152708
											}
										}
									}
								}
							}
							JOINT newVegas:Left_Sleeve
							{
								OFFSET 0.267448 -0.649796 0.577675
								CHANNELS 3 Xrotation Yrotation Zrotation
								End Site
								{
									OFFSET 0.000000 15.991241 0.000000
								}
							}
							JOINT newVegas:Left_CapeC
							{
								OFFSET 15.715958 -8.608795 -6.935905
								CHANNELS 3 Xrotation Yrotation Zrotation
								JOINT newVegas:Left_CapeC1
								{
									OFFSET 0.000000 -8.688499 0.000000
									CHANNELS 3 Xrotation Yrotation Zrotation
									End Site
									{
										OFFSET 0.000000 8.688499 0.000000
									}
								}
							}
						}
						JOINT newVegas:Left_CapeB
						{
							OFFSET 26.118385 -8.608795 -7.079235
							CHANNELS 3 Xrotation Yrotation Zrotation
							JOINT newVegas:Left_CapeB1
							{
								OFFSET 0.000000 -8.688499 0.000000
								CHANNELS 3 Xrotation Yrotation Zrotation
								End Site
								{
									OFFSET 0.000000 8.688499 0.000000
								}
							}
						}
						JOINT newVegas:Left_CapeA
						{
							OFFSET 5.115639 -8.608795 -10.395809
							CHANNELS 3 Xrotation Yrotation Zrotation
							JOINT newVegas:Left_CapeA1
							{
								OFFSET 0.000000 -8.688499 0.000000
								CHANNELS 3 Xrotation Yrotation Zrotation
								End Site
								{
									OFFSET 0.000000 8.688499 0.000000
								}
							}
						}
					}
				}
				JOINT newVegas:RightShoulder
				{
					OFFSET -15.263000 10.923401 -0.547700
					CHANNELS 3 Xrotation Yrotation Zrotation
					JOINT newVegas:RightArm
					{
						OFFSET -25.438599 -2.830597 -13.032500
						CHANNELS 3 Xrotation Yrotation Zrotation
						JOINT newVegas:RightForeArm
						{
							OFFSET -29.960503 0.000000 0.000000
							CHANNELS 3 Xrotation Yrotation Zrotation
							JOINT newVegas:RightHand
							{
								OFFSET -27.849251 0.000000 0.000000
								CHANNELS 3 Xrotation Yrotation Zrotation
								JOINT newVegas:RightHandThumb1
								{
									OFFSET -4.487587 -3.305161 6.305391
									CHANNELS 3 Xrotation Yrotation Zrotation
									JOINT newVegas:RightHandThumb2
									{
										OFFSET -5.480453 -3.164139 3.164143
										CHANNELS 3 Xrotation Yrotation Zrotation
										JOINT newVegas:RightHandThumb3
										{
											OFFSET -5.159721 -2.978973 2.978967
											CHANNELS 3 Xrotation Yrotation Zrotation
											End Site
											{
												OFFSET -2.494507 5.926697 1.738678
											}
										}
									}
								}
								JOINT newVegas:RightHandIndex1
								{
									OFFSET -18.578728 -0.527832 5.208049
									CHANNELS 3 Xrotation Yrotation Zrotation
									JOINT newVegas:RightHandIndex2
									{
										OFFSET -3.192009 0.000000 0.000000
										CHANNELS 3 Xrotation Yrotation Zrotation
										JOINT newVegas:RightHandIndex3
										{
											OFFSET -3.835129 0.000000 0.000000
											CHANNELS 3 Xrotation Yrotation Zrotation
											End Site
											{
												OFFSET 0.034599 3.816971 0.371180
											}
										}
									}
								}
								JOINT newVegas:RightHandMiddle1
								{
									OFFSET -18.476105 0.000000 0.000000
									CHANNELS 3 Xrotation Yrotation Zrotation
									JOINT newVegas:RightHandMiddle2
									{
										OFFSET -3.324875 0.000000 0.000000
										CHANNELS 3 Xrotation Yrotation Zrotation
										JOINT newVegas:RightHandMiddle3
										{
											OFFSET -4.596550 0.000000 0.000000
											CHANNELS 3 Xrotation Yrotation Zrotation
											End Site
											{
												OFFSET -0.057701 4.578827 0.399218
											}
										}
									}
								}
								JOINT newVegas:RightHandRing1
								{
									OFFSET -17.732719 0.121887 -4.201567
									CHANNELS 3 Xrotation Yrotation Zrotation
									JOINT newVegas:RightHandRing2
									{
										OFFSET -2.733170 0.000000 0.000000
										CHANNELS 3 Xrotation Yrotation Zrotation
										JOINT newVegas:RightHandRing3
										{
											OFFSET -3.178268 0.000000 0.000000
											CHANNELS 3 Xrotation Yrotation Zrotation
											End Site
											{
												OFFSET -0.119102 3.170624 0.185394
											}
										}
									}
								}
								JOINT newVegas:RightHandPinky1
								{
									OFFSET -15.989624 -0.606689 -7.535461
									CHANNELS 3 Xrotation Yrotation Zrotation
									JOINT newVegas:RightHandPinky2
									{
										OFFSET -2.538986 0.000000 0.000000
										CHANNELS 3 Xrotation Yrotation Zrotation
										JOINT newVegas:RightHandPinky3
										{
											OFFSET -2.593102 0.000000 0.000000
											CHANNELS 3 Xrotation Yrotation Zrotation
											End Site
											{
												OFFSET 0.150902 2.584198 0.152708
											}
										}
									}
								}
							}
							JOINT newVegas:Right_CapeC
							{
								OFFSET -15.715958 -8.608795 -6.935905
								CHANNELS 3 Xrotation Yrotation Zrotation
								JOINT newVegas:Right_CapeC1
								{
									OFFSET 0.000000 -8.688499 0.000000
									CHANNELS 3 Xrotation Yrotation Zrotation
									End Site
									{
										OFFSET 0.000000 8.688499 0.000000
									}
								}
							}
							JOINT newVegas:Right_Sleeve
							{
								OFFSET -0.267448 -0.649994 0.577675
								CHANNELS 3 Xrotation Yrotation Zrotation
								End Site
								{
									OFFSET 0.000000 15.991302 0.000000
								}
							}
						}
						JOINT newVegas:Right_CapeA
						{
							OFFSET -5.115540 -8.608795 -10.395824
							CHANNELS 3 Xrotation Yrotation Zrotation
							JOINT newVegas:Right_CapeA1
							{
								OFFSET 0.000000 -8.688499 0.000000
								CHANNELS 3 Xrotation Yrotation Zrotation
								End Site
								{
									OFFSET 0.000000 8.688499 0.000000
								}
							}
						}
						JOINT newVegas:Right_CapeB
						{
							OFFSET -26.118187 -8.608795 -7.079266
							CHANNELS 3 Xrotation Yrotation Zrotation
							JOINT newVegas:Right_CapeB1
							{
								OFFSET 0.000000 -8.688499 0.000000
								CHANNELS 3 Xrotation Yrotation Zrotation
								End Site
								{
									OFFSET 0.000000 8.688499 0.000000
								}
							}
						}
					}
				}
				JOINT newVegas:Left_Collar
				{
					OFFSET 18.625099 8.655502 8.828100
					CHANNELS 3 Xrotation Yrotation Zrotation
					JOINT newVegas:Left_Collar1
					{
						OFFSET 14.783401 10.540405 -1.259500
						CHANNELS 3 Xrotation Yrotation Zrotation
						End Site
						{
							OFFSET 0.000000 18.199875 0.000000
						}
					}
				}
				JOINT newVegas:Collar_Back
				{
					OFFSET 0.000000 15.630707 -20.132601
					CHANNELS 3 Xrotation Yrotation Zrotation
					End Site
					{
						OFFSET 0.000000 22.523010 0.000000
					}
				}
				JOINT newVegas:Left_Peck
				{
					OFFSET 17.239599 -5.132599 25.482599
					CHANNELS 3 Xrotation Yrotation Zrotation
					End Site
					{
						OFFSET 0.000000 22.523010 0.000000
					}
				}
				JOINT newVegas:Right_Peck
				{
					OFFSET -17.239599 -5.132202 25.482599
					CHANNELS 3 Xrotation Yrotation Zrotation
					End Site
					{
						OFFSET 0.000000 22.523010 0.000000
					}
				}
				JOINT newVegas:Right_Collar
				{
					OFFSET -18.625099 8.655792 8.828100
					CHANNELS 3 Xrotation Yrotation Zrotation
					JOINT newVegas:Right_Collar1
					{
						OFFSET -14.783401 10.539993 -1.259500
						CHANNELS 3 Xrotation Yrotation Zrotation
						End Site
						{
							OFFSET 0.000000 18.199631 0.000000
						}
					}
				}
			}
		}
		JOINT newVegas:Belly
		{
			OFFSET 0.000000 -6.540398 9.014299
			CHANNELS 3 Xrotation Yrotation Zrotation
			End Site
			{
				OFFSET 0.000000 11.566666 0.000000
			}
		}
	}
	JOINT newVegas:ElvisFacialAnim_Joint
	{
		OFFSET 1.000000 -95.330101 -8.825800
		CHANNELS 3 Xrotation Yrotation Zrotation
		End Site
		{
			OFFSET 0.000000 35.315800 0.000000
		}
	}
}
MOTION
Frames: 4
Frame Time: 0.033333
0.048931 95.260971 4.396804 -3.753863 -5.231624 -3.178575 -0.000000 0.000000 0.000000 -14.966715 13.505193 12.523962 20.420773 1.789109 4.645577 -2.584026 1.110781 -9.512219 -0.000000 0.000001 -0.000000 0.000000 -0.000001 -0.000000 4.372936 -10.110064 2.837427 4.854367 -9.672594 -3.267025 -4.773658 -1.871448 4.150721 -0.000000 0.000000 -0.000000 0.000000 -0.000004 -0.000000 3.312588 1.528342 2.147165 1.151890 0.343836 1.552799 1.126014 0.365522 1.555885 2.249509 -0.041726 0.188137 2.249542 -0.041725 0.188134 0.000000 0.000000 -0.000000 2.249440 -0.041729 0.188137 2.249581 -0.041723 0.188135 -0.000001 0.000000 -0.000001 0.000000 0.000000 -0.000000 1.049662 -17.442107 -12.319424 3.916252 -19.989264 -69.765267 -0.000002 -1.459367 0.000013 -33.230400 -1.364826 -6.186621 -0.662999 2.160314 4.832488 11.856261 25.420586 17.057740 -0.000000 -0.000003 -0.000005 0.015891 -0.969077 -7.593310 0.267873 1.752893 -17.375725 -0.000002 -0.000001 -0.000003 -0.076312 2.665774 -15.696837 0.268835 1.755961 -17.407109 0.000000 -0.000000 -0.000002 0.136910 3.641765 -21.133532 0.386630 2.094791 -20.911884 -0.000001 -0.000001 0.000003 0.927918 5.555833 -27.128043 0.268795 1.755828 -17.405888 -0.000000 -0.000005 -0.000000 -0.000001 -0.000000 0.000001 -0.000001 -0.000000 0.000001 -0.000002 -0.000000 0.000001 0.000000 0.000001 0.000000 0.000001 0.000001 -0.000000 0.000000 0.000001 0.000000 -0.000001 0.000001 -0.000000 1.205473 15.344240 14.705956 13.158867 27.555128 58.785157 -0.000004 6.693728 0.000005 -20.179099 -0.514090 6.782793 -1.665248 -0.174476 -4.219027 12.723288 -29.825968 -16.128734 0.000001 -0.000001 0.000001 0.037421 1.262170 6.823688 0.213720 -1.396035 17.407046 -0.000002 -0.000001 -0.000002 -0.136222 -2.205099 14.998894 0.214446 -1.398353 17.436853 0.000001 -0.000000 0.000003 0.030616 -3.075753 20.451043 0.308442 -1.668280 20.948525 -0.000001 0.000001 0.000001 0.754231 -4.882588 26.474177 0.214456 -1.398374 17.437244 -0.000003 0.000005 -0.000000 0.000002 0.000000 -0.000001 0.000002 0.000000 -0.000001 0.000002 0.000000 -0.000000 0.000002 0.000001 -0.000000 0.000002 0.000001 -0.000000 0.000002 0.000001 -0.000000 0.000002 0.000001 -0.000000 0.000000 0.000000 0.000000 0.000000 0.000000 0.000000 0.000000 0.000000 0.000000 0.000000 0.000000 0.000000 0.000000 0.000000 0.000000 0.000000 0.000000 0.000000 0.000000 0.000000 0.000000 -0.000000 -0.000000 0.000000 -0.000000 0.000000 0.000000 
0.089065 95.242531 4.324551 -3.793047 -5.346582 -3.189234 -0.000000 -0.000000 -0.000000 -15.053838 13.503143 12.513912 20.623555 1.900888 4.661029 -2.652337 1.110333 -9.475074 0.000000 -0.000001 -0.000000 -0.000001 -0.000000 0.000000 4.070740 -10.113447 2.730387 5.346702 -9.596287 -3.202254 -4.923562 -1.858639 4.151050 0.000000 -0.000000 -0.000000 0.000000 -0.000003 -0.000000 3.335629 1.528650 2.152490 1.176379 0.343835 1.565849 1.150302 0.365523 1.568003 2.274561 -0.039751 0.188186 2.274532 -0.039750 0.188187 0.000001 0.000000 0.000000 2.274566 -0.039742 0.188183 2.274706 -0.039763 0.188188 0.000000 -0.000000 -0.000000 0.000001 0.000000 0.000000 1.051856 -17.467087 -12.294457 3.918740 -20.037197 -69.732598 0.000002 -1.464774 0.000008 -33.209370 -1.332622 -6.202754 -0.721493 2.051115 4.813126 11.854728 25.424075 17.061543 0.000001 -0.000002 -0.000005 0.016148 -0.992511 -7.548534 0.267868 1.752888 -17.375737 0.000000 -0.000000 0.000001 -0.085398 2.628581 -15.644376 0.268832 1.755956 -17.407121 -0.000001 0.000000 -0.000002 0.115994 3.579309 -20.953414 0.385557 2.091980 -20.882555 0.000000 -0.000001 -0.000001 0.903764 5.523142 -27.045787 0.267185 1.750690 -17.353264 0.000001 -0.000003 -0.000002 -0.000001 -0.000001 -0.000001 -0.000001 -0.000001 -0.000001 -0.000002 -0.000001 -0.000001 0.000000 0.000000 -0.000000 0.000001 0.000001 -0.000000 0.000000 0.000000 -0.000000 -0.000001 0.000001 -0.000000 1.207368 15.362687 14.680657 13.210179 27.701765 58.672131 -0.000003 6.767937 -0.000005 -20.271754 -0.495523 6.777565 -1.572072 -0.099402 -4.187519 12.704028 -29.826159 -16.183256 -0.000002 -0.000003 0.000001 0.037806 1.295868 6.764837 0.215228 -1.400809 17.468514 0.000002 -0.000001 -0.000003 -0.140538 -2.168602 14.777206 0.214152 -1.397370 17.424320 -0.000002 -0.000001 -0.000001 0.020958 -3.033594 20.097265 0.302366 -1.652303 20.738553 0.000001 -0.000001 0.000002 0.761114 -4.905969 26.065571 0.215409 -1.401398 17.476287 0.000001 0.000002 -0.000001 0.000002 -0.000000 0.000001 0.000002 -0.000000 0.000000 0.000002 -0.000000 0.000001 -0.000000 0.000000 -0.000001 -0.000000 0.000000 -0.000000 -0.000000 0.000000 -0.000001 -0.000000 -0.000000 -0.000000 -0.000000 0.000000 -0.000000 -0.000000 0.000000 -0.000000 -0.000000 0.000000 -0.000000 -0.000000 0.000000 -0.000000 -0.000000 0.000000 -0.000000 -0.000000 0.000000 -0.000000 -0.000000 0.000000 -0.000000 0.000000 -0.000001 -0.000000 -0.000000 -0.000000 -0.000000 
0.129332 95.223030 4.232424 -3.846402 -5.453754 -3.206383 0.000000 -0.000001 -0.000000 -15.180186 13.496625 12.528565 20.861187 1.984257 4.678786 -2.674407 1.107806 -9.472524 0.000000 -0.000000 -0.000000 -0.000000 -0.000000 0.000000 3.635015 -10.119071 2.599067 6.073114 -9.529543 -3.131573 -5.103803 -1.843630 4.165560 0.000000 -0.000000 0.000000 -0.000000 -0.000003 -0.000000 3.366142 1.528870 2.163387 1.200398 0.343838 1.581838 1.174009 0.365521 1.583767 2.303677 -0.030943 0.186223 2.303740 -0.030944 0.186218 0.000000 -0.000000 -0.000000 2.303868 -0.030943 0.186218 2.303650 -0.030934 0.186216 0.000001 -0.000000 -0.000000 0.000000 -0.000000 0.000000 1.062067 -17.499865 -12.226445 3.954446 -20.076936 -69.763948 -0.000002 -1.486119 0.000005 -33.226101 -1.325807 -6.204950 -0.955192 1.809147 4.840388 11.890266 25.448074 16.941372 -0.000000 -0.000001 -0.000006 0.011752 -1.064205 -7.334421 0.267561 1.751892 -17.365450 0.000003 0.000001 0.000001 -0.105673 2.538554 -15.462153 0.268831 1.755958 -17.407097 -0.000001 0.000001 -0.000003 0.082773 3.472624 -20.560261 0.383456 2.086490 -20.825100 0.000001 -0.000001 -0.000001 0.834132 5.436874 -26.944803 0.269498 1.758080 -17.428887 -0.000001 -0.000002 -0.000001 0.000002 0.000000 -0.000001 0.000002 0.000000 -0.000001 0.000001 0.000000 -0.000001 -0.000002 0.000000 -0.000000 -0.000001 0.000000 -0.000000 -0.000002 0.000000 -0.000000 -0.000003 0.000000 -0.000000 1.213329 15.425700 14.643762 13.355908 27.954229 58.522468 -0.000015 6.863547 -0.000005 -20.296896 -0.485154 6.754000 -1.472771 0.173337 -4.237016 12.773004 -29.843245 -15.983963 0.000002 -0.000002 -0.000001 0.048226 1.565628 6.092522 0.215993 -1.403238 17.499747 0.000001 0.000001 0.000002 -0.161643 -1.990712 13.822207 0.213026 -1.393814 17.378583 0.000001 0.000001 0.000005 0.014893 -2.971507 19.130055 0.294005 -1.630045 20.446503 -0.000000 0.000002 -0.000000 0.716940 -4.843638 24.891347 0.213415 -1.395051 17.394491 0.000002 0.000002 -0.000002 -0.000003 0.000000 0.000001 0.000000 0.000000 0.000000 -0.000003 0.000000 0.000001 0.000000 -0.000001 -0.000000 0.000000 -0.000001 -0.000000 0.000000 -0.000001 -0.000000 0.000000 -0.000001 -0.000000 -0.000000 0.000000 -0.000000 -0.000000 0.000000 -0.000000 -0.000000 0.000000 -0.000000 -0.000000 0.000000 -0.000000 -0.000000 0.000000 -0.000000 -0.000000 0.000000 -0.000000 -0.000000 0.000000 -0.000000 0.000000 0.000000 -0.000000 0.000000 -0.000001 -0.000000 
0.168953 95.207596 4.129905 -3.923047 -5.549397 -3.221518 0.000000 -0.000000 -0.000000 -15.301195 13.498155 12.566547 21.079970 2.032920 4.683624 -2.628862 1.100923 -9.504304 0.000000 -0.000000 -0.000000 0.000000 -0.000001 0.000000 3.160186 -10.107408 2.471327 6.893322 -9.497376 -3.083543 -5.279647 -1.831232 4.194487 0.000000 0.000002 -0.000000 0.000000 -0.000000 0.000000 3.397087 1.529016 2.181185 1.215572 0.343837 1.599621 1.188842 0.365523 1.602493 2.344217 -0.011116 0.172806 2.344216 -0.011113 0.172806 0.000000 -0.000000 -0.000000 2.344219 -0.011114 0.172806 2.344286 -0.011115 0.172806 0.000001 0.000000 -0.000001 0.000000 -0.000000 -0.000000 1.078493 -17.499804 -12.104222 4.023714 -20.112219 -69.866545 -0.000015 -1.528155 0.000015 -33.343915 -1.339682 -6.215218 -1.184736 1.380472 4.763177 11.938218 25.480109 16.779736 -0.000003 -0.000002 -0.000003 0.005996 -1.185370 -6.966679 0.266762 1.749350 -17.339499 -0.000001 0.000000 0.000001 -0.114742 2.473364 -15.131878 0.268833 1.755957 -17.407096 -0.000002 0.000001 0.000002 0.041107 3.330309 -20.008944 0.380175 2.077842 -20.734788 -0.000000 -0.000000 -0.000002 0.729987 5.309387 -26.889411 0.276763 1.781046 -17.664201 0.000002 -0.000005 -0.000001 0.000001 0.000000 -0.000000 0.000001 0.000000 -0.000000 -0.000000 0.000000 0.000000 0.000001 0.000000 0.000000 0.000001 0.000000 0.000000 0.000001 0.000000 0.000000 -0.000001 -0.000000 0.000000 1.219256 15.552807 14.602622 13.699596 28.369624 58.244028 -0.000008 7.019583 0.000007 -20.175406 -0.495487 6.761726 -1.337910 0.514534 -4.455306 12.931774 -29.880059 -15.526854 0.000002 -0.000001 -0.000002 0.081044 2.111234 4.801405 0.216088 -1.403574 17.504050 -0.000001 0.000001 -0.000001 -0.191222 -1.655677 12.118375 0.211194 -1.387951 17.303135 -0.000000 -0.000001 -0.000003 -0.008213 -2.825384 17.594079 0.286305 -1.609263 20.174217 -0.000001 -0.000001 -0.000007 0.598809 -4.642123 22.951048 0.210283 -1.385004 17.265248 -0.000001 0.000003 0.000001 0.000001 0.000001 -0.000000 -0.000001 0.000000 -0.000000 0.000001 0.000000 0.000000 -0.000003 -0.000001 -0.000000 -0.000003 -0.000001 0.000000 -0.000003 -0.000001 -0.000000 -0.000003 -0.000001 0.000000 0.000000 -0.000000 -0.000000 0.000000 -0.000000 -0.000000 0.000000 -0.000000 -0.000000 0.000000 -0.000000 -0.000000 0.000000 -0.000000 -0.000000 0.000000 -0.000000 -0.000000 0.000000 -0.000000 -0.000000 0.000000 -0.000000 -0.000000 0.000000 -0.000000 -0.000000 
